<?xml version="1.0" encoding="UTF-8"?>
<svg xmlns="http://www.w3.org/2000/svg" xmlns:xlink="http://www.w3.org/1999/xlink" width="30pt" height="30.000001pt" viewBox="0 0 30 30.000001" version="1.2">
<defs>
<clipPath id="clip1">
  <path d="M 4 1 L 27 1 L 27 29 L 4 29 Z M 4 1 "/>
</clipPath>
<clipPath id="clip2">
  <path d="M 17.320312 -5.496094 L 31.980469 8.574219 L 9.863281 31.613281 L -4.796875 17.539062 Z M 17.320312 -5.496094 "/>
</clipPath>
<clipPath id="clip3">
  <path d="M 32.21875 8.804688 L 17.554688 -5.269531 L -4.558594 17.769531 L 10.101562 31.84375 Z M 32.21875 8.804688 "/>
</clipPath>
</defs>
<g id="surface1">
<g clip-path="url(#clip1)" clip-rule="nonzero">
<g clip-path="url(#clip2)" clip-rule="nonzero">
<g clip-path="url(#clip3)" clip-rule="nonzero">
<path style=" stroke:none;fill-rule:nonzero;fill:rgb(100%,100%,100%);fill-opacity:1;" d="M 5.539062 21.207031 C 5.359375 20.890625 3.320312 16.605469 4.664062 11.6875 C 5.933594 7.042969 9.875 2.894531 15.003906 1.527344 C 21.003906 -0.078125 25.777344 2.882812 26.59375 3.40625 C 26.269531 7.316406 25.179688 10.269531 24.351562 12.082031 C 22.964844 15.125 20.230469 21.117188 15.21875 22.367188 C 12.058594 23.152344 10.09375 21.570312 8.230469 23.152344 C 6.269531 24.816406 6.730469 28.269531 6.507812 28.253906 C 6.328125 28.238281 6.089844 25.945312 6.867188 23.292969 C 7.015625 22.792969 7.441406 21.457031 8.644531 19.511719 C 9.710938 17.785156 10.804688 16.519531 12.917969 14.359375 C 14.40625 12.84375 16.363281 10.917969 18.757812 8.746094 C 15.964844 10.546875 13.855469 12.28125 12.394531 13.597656 C 11.289062 14.59375 10.484375 15.328125 9.589844 16.457031 C 7.792969 18.726562 6.910156 21 6.453125 22.550781 C 6.203125 22.238281 5.867188 21.789062 5.539062 21.207031 "/>
</g>
</g>
</g>
</g>
</svg>
